<?xml version="1.0" encoding="UTF-8"?>
<svg version="1.1" xmlns="http://www.w3.org/2000/svg" width="170" height="236">
<path d="M0 0 C56.1 0 112.2 0 170 0 C170 77.88 170 155.76 170 236 C113.9 236 57.8 236 0 236 C0 158.12 0 80.24 0 0 Z " fill="#5A6D8A" transform="translate(0,0)"/>
<path d="M0 0 C56.1 0 112.2 0 170 0 C170 77.88 170 155.76 170 236 C113.9 236 57.8 236 0 236 C0 158.12 0 80.24 0 0 Z M66 15 C64.31003906 15.64195313 64.31003906 15.64195313 62.5859375 16.296875 C49.34693785 22.2882471 37.73820009 32.78505307 31.93359375 46.29296875 C30.85687124 49.41501353 29.9560471 52.46653604 29.40621948 55.72462463 C29.01684652 57.90563686 28.50410712 60.01954753 27.96533203 62.16772461 C26.87681961 67.03363057 26.74277174 71.65948725 26.8046875 76.62890625 C26.80893234 77.94156715 26.80893234 77.94156715 26.81326294 79.28074646 C26.82434606 82.04147755 26.84942743 84.80186905 26.875 87.5625 C26.88504518 89.44856298 26.89416832 91.33463111 26.90234375 93.22070312 C26.92424632 97.81393043 26.95869236 102.40690789 27 107 C25.86220093 106.96845825 25.86220093 106.96845825 24.70141602 106.9362793 C23.70811279 106.91992432 22.71480957 106.90356934 21.69140625 106.88671875 C20.21329468 106.855177 20.21329468 106.855177 18.70532227 106.82299805 C15.04061421 107.06277003 13.40619206 108.28333154 11 111 C8.91983394 114.12024909 8.7487192 114.80853281 8.73930359 118.35128784 C8.73221878 119.24008636 8.72513397 120.12888489 8.71783447 121.0446167 C8.72031189 122.01715393 8.72278931 122.98969116 8.7253418 123.99169922 C8.72023087 125.01798431 8.71511993 126.04426941 8.70985413 127.10165405 C8.69592572 130.50272412 8.69691749 133.90359226 8.69921875 137.3046875 C8.69533334 139.66496863 8.690999 142.02524905 8.68623352 144.38552856 C8.67876412 149.33695744 8.67906763 154.28831503 8.68432617 159.23974609 C8.69011886 165.58752021 8.67319788 171.93500236 8.6499815 178.2827282 C8.63525436 183.15888172 8.63437113 188.0349648 8.63749123 192.91113663 C8.63697741 195.25152286 8.63172838 197.59191297 8.62167931 199.93227768 C8.60935356 203.20488225 8.616084 206.47691639 8.62768555 209.74951172 C8.62004181 210.71800049 8.61239807 211.68648926 8.60452271 212.68432617 C8.642943 217.58353396 8.70426374 221.09327559 12 225 C15.23763633 227.97047531 17.38585338 228.37376562 21.73780823 228.36749268 C22.90853882 228.37306183 24.07926941 228.37863098 25.28547668 228.3843689 C26.5661351 228.37515411 27.84679352 228.36593933 29.16625977 228.35644531 C30.53142427 228.35723635 31.89658854 228.35933412 33.26174927 228.36264038 C36.96624869 228.36777272 40.67047015 228.35424289 44.3749249 228.33711338 C48.25058898 228.32207508 52.12624949 228.32325136 56.00193787 228.32244873 C62.50939681 228.31875674 69.01675024 228.30379226 75.52416992 228.28125 C83.87972876 228.2523648 92.23520267 228.24202541 100.59080601 228.2375679 C107.77172407 228.23358896 114.95262365 228.22108783 122.13352847 228.20722103 C124.44329775 228.20312164 126.75306638 228.20019623 129.0628376 228.19742584 C132.68993399 228.19253347 136.31697889 228.1823311 139.94404984 228.16798782 C141.9127088 228.16130401 143.88138232 228.15946106 145.85005188 228.15774536 C147.01796265 228.15203522 148.18587341 228.14632507 149.38917542 228.14044189 C150.91478513 228.1359799 150.91478513 228.1359799 152.47121525 228.13142776 C155.12596027 228.10610344 155.12596027 228.10610344 158 227 C158 226.34 158 225.68 158 225 C158.99 224.67 159.98 224.34 161 224 C162.86432086 221.16076407 163.25284665 218.88425955 163.26742554 215.52845764 C163.27595551 214.63828445 163.28448547 213.74811127 163.29327393 212.83096313 C163.29236755 211.86202118 163.29146118 210.89307922 163.29052734 209.89477539 C163.29724457 208.86834427 163.30396179 207.84191315 163.31088257 206.78437805 C163.32989253 203.38875499 163.33378814 199.99332922 163.3359375 196.59765625 C163.34236273 194.2388043 163.34909088 191.87995316 163.35610962 189.52110291 C163.36808947 184.57565462 163.37178965 179.63027623 163.37060547 174.68481445 C163.3704021 168.34484502 163.39771962 162.00532297 163.43214989 155.66545963 C163.45437474 150.79359372 163.45844438 145.92183628 163.45738602 141.04992485 C163.45974804 138.71231988 163.46860521 136.37471219 163.48405075 134.03715706 C163.50362322 130.76932439 163.49790677 127.50246716 163.48583984 124.23461914 C163.49707886 123.26770142 163.50831787 122.30078369 163.51989746 121.30456543 C163.48009994 117.06818421 163.40456137 114.66180457 161.15713501 110.9853363 C157.390873 107.51902721 155.34357364 106.7566218 150.3125 106.875 C148.82169922 106.90207031 148.82169922 106.90207031 147.30078125 106.9296875 C146.54152344 106.95289062 145.78226563 106.97609375 145 107 C145.00523682 106.04335449 145.01047363 105.08670898 145.01586914 104.10107422 C145.03425177 100.48161796 145.04555084 96.86216562 145.05493164 93.24267578 C145.05989711 91.68928326 145.06667173 90.13589525 145.07543945 88.58251953 C145.20083635 65.76028398 143.93136278 45.62622088 127.625 28.0625 C115.55299968 16.99649971 101.17334772 11.62529482 85 11.6875 C84.16210938 11.67138672 83.32421875 11.65527344 82.4609375 11.63867188 C76.44489346 11.63401549 71.57018295 12.77838539 66 15 Z " fill="#B1C0CF" transform="translate(0,0)"/>
<path d="M0 0 C8.15173858 6.85619441 15.02195769 15.06395667 17.25 25.75 C17.33406811 27.30711074 17.36780938 28.8673852 17.36352539 30.42675781 C17.36340454 31.3602002 17.36328369 32.29364258 17.36315918 33.25537109 C17.35804321 34.22812988 17.35292725 35.20088867 17.34765625 36.203125 C17.34664917 37.10337402 17.34564209 38.00362305 17.34460449 38.93115234 C17.33938058 42.28744789 17.3254193 45.64372525 17.3125 49 C17.291875 56.5075 17.27125 64.015 17.25 71.75 C-10.47 71.75 -38.19 71.75 -66.75 71.75 C-66.8325 64.4075 -66.915 57.065 -67 49.5 C-67.03641602 47.20772461 -67.07283203 44.91544922 -67.11035156 42.55371094 C-67.25279805 27.25264601 -66.13613747 15.6911019 -55.23046875 4.140625 C-40.43854563 -9.82352627 -16.45074437 -12.06203908 0 0 Z " fill="#D9E0E8" transform="translate(110.75,35.25)"/>
<path d="M0 0 C2.52122138 1.95716435 4.94728005 3.98344794 7.3515625 6.08203125 C7.97804687 6.613125 8.60453125 7.14421875 9.25 7.69140625 C19.86575722 17.39449656 25.6161359 31.03294746 27.3515625 45.08203125 C27.42809449 47.35050532 27.45967838 49.62088441 27.44921875 51.890625 C27.44599609 53.13134766 27.44277344 54.37207031 27.43945312 55.65039062 C27.43107422 56.92720703 27.42269531 58.20402344 27.4140625 59.51953125 C27.40955078 60.82341797 27.40503906 62.12730469 27.40039062 63.47070312 C27.38865511 66.67449902 27.3707212 69.87827115 27.3515625 73.08203125 C33.2915625 73.08203125 39.2315625 73.08203125 45.3515625 73.08203125 C45.3515625 121.59203125 45.3515625 170.10203125 45.3515625 220.08203125 C-10.7484375 220.08203125 -66.8484375 220.08203125 -124.6484375 220.08203125 C-124.6896875 200.92140625 -124.7309375 181.76078125 -124.7734375 162.01953125 C-124.79164551 155.97503662 -124.80985352 149.93054199 -124.82861328 143.70288086 C-124.83764648 136.30773926 -124.83764648 136.30773926 -124.83932495 132.84303284 C-124.84239112 130.42916628 -124.8494149 128.01530275 -124.85958862 125.60145569 C-124.87424636 121.93989764 -124.87624885 118.27852639 -124.87548828 114.61694336 C-124.8826845 113.54603171 -124.88988071 112.47512007 -124.897295 111.37175655 C-124.87333233 102.74311783 -123.4416664 96.34034929 -118.6484375 89.08203125 C-114.77096184 85.40340049 -111.07320326 83.08203125 -105.6484375 83.08203125 C-105.66414795 82.00421387 -105.6798584 80.92639648 -105.69604492 79.81591797 C-105.75107239 75.74926472 -105.78504733 71.68264305 -105.81323242 67.61572266 C-105.82815557 65.86827021 -105.84850149 64.1208541 -105.87475586 62.37353516 C-106.17985204 41.51931407 -103.04938637 24.2748403 -88.10498047 8.51806641 C-64.43162433 -14.82197396 -27.46828683 -19.89222542 0 0 Z M-58.6484375 -0.91796875 C-60.33839844 -0.27601562 -60.33839844 -0.27601562 -62.0625 0.37890625 C-75.30149965 6.37027835 -86.91023741 16.86708432 -92.71484375 30.375 C-93.79156626 33.49704478 -94.6923904 36.54856729 -95.24221802 39.80665588 C-95.63159098 41.98766811 -96.14433038 44.10157878 -96.68310547 46.24975586 C-97.77161789 51.11566182 -97.90566576 55.7415185 -97.84375 60.7109375 C-97.83950516 62.0235984 -97.83950516 62.0235984 -97.83517456 63.36277771 C-97.82409144 66.1235088 -97.79901007 68.8839003 -97.7734375 71.64453125 C-97.76339232 73.53059423 -97.75426918 75.41666236 -97.74609375 77.30273438 C-97.72419118 81.89596168 -97.68974514 86.48893914 -97.6484375 91.08203125 C-98.78623657 91.0504895 -98.78623657 91.0504895 -99.94702148 91.01831055 C-100.94032471 91.00195557 -101.93362793 90.98560059 -102.95703125 90.96875 C-104.43514282 90.93720825 -104.43514282 90.93720825 -105.94311523 90.9050293 C-109.60782329 91.14480128 -111.24224544 92.36536279 -113.6484375 95.08203125 C-115.72860356 98.20228034 -115.8997183 98.89056406 -115.90913391 102.43331909 C-115.91621872 103.32211761 -115.92330353 104.21091614 -115.93060303 105.12664795 C-115.92812561 106.09918518 -115.92564819 107.07172241 -115.9230957 108.07373047 C-115.92820663 109.10001556 -115.93331757 110.12630066 -115.93858337 111.1836853 C-115.95251178 114.58475537 -115.95152001 117.98562351 -115.94921875 121.38671875 C-115.95310416 123.74699988 -115.9574385 126.1072803 -115.96220398 128.46755981 C-115.96967338 133.41898869 -115.96936987 138.37034628 -115.96411133 143.32177734 C-115.95831864 149.66955146 -115.97523962 156.01703361 -115.998456 162.36475945 C-116.01318314 167.24091297 -116.01406637 172.11699605 -116.01094627 176.99316788 C-116.01146009 179.33355411 -116.01670912 181.67394422 -116.02675819 184.01430893 C-116.03908394 187.2869135 -116.0323535 190.55894764 -116.02075195 193.83154297 C-116.02839569 194.80003174 -116.03603943 195.76852051 -116.04391479 196.76635742 C-116.0054945 201.66556521 -115.94417376 205.17530684 -112.6484375 209.08203125 C-109.41080117 212.05250656 -107.26258412 212.45579687 -102.91062927 212.44952393 C-101.73989868 212.45509308 -100.56916809 212.46066223 -99.36296082 212.46640015 C-98.0823024 212.45718536 -96.80164398 212.44797058 -95.48217773 212.43847656 C-94.11701323 212.4392676 -92.75184896 212.44136537 -91.38668823 212.44467163 C-87.68218881 212.44980397 -83.97796735 212.43627414 -80.2735126 212.41914463 C-76.39784852 212.40410633 -72.52218801 212.40528261 -68.64649963 212.40447998 C-62.13904069 212.40078799 -55.63168726 212.38582351 -49.12426758 212.36328125 C-40.76870874 212.33439605 -32.41323483 212.32405666 -24.05763149 212.31959915 C-16.87671343 212.31562021 -9.69581385 212.30311908 -2.51490903 212.28925228 C-0.20513975 212.28515289 2.10462888 212.28222748 4.4144001 212.27945709 C8.04149649 212.27456472 11.66854139 212.26436235 15.29561234 212.25001907 C17.2642713 212.24333526 19.23294482 212.24149231 21.20161438 212.23977661 C22.36952515 212.23406647 23.53743591 212.22835632 24.74073792 212.22247314 C26.26634763 212.21801115 26.26634763 212.21801115 27.82277775 212.21345901 C30.47752277 212.18813469 30.47752277 212.18813469 33.3515625 211.08203125 C33.3515625 210.42203125 33.3515625 209.76203125 33.3515625 209.08203125 C34.3415625 208.75203125 35.3315625 208.42203125 36.3515625 208.08203125 C38.21588336 205.24279532 38.60440915 202.9662908 38.61898804 199.61048889 C38.62751801 198.7203157 38.63604797 197.83014252 38.64483643 196.91299438 C38.64393005 195.94405243 38.64302368 194.97511047 38.64208984 193.97680664 C38.64880707 192.95037552 38.65552429 191.9239444 38.66244507 190.8664093 C38.68145503 187.47078624 38.68535064 184.07536047 38.6875 180.6796875 C38.69392523 178.32083555 38.70065338 175.96198441 38.70767212 173.60313416 C38.71965197 168.65768587 38.72335215 163.71230748 38.72216797 158.7668457 C38.7219646 152.42687627 38.74928212 146.08735422 38.78371239 139.74749088 C38.80593724 134.87562497 38.81000688 130.00386753 38.80894852 125.1319561 C38.81131054 122.79435113 38.82016771 120.45674344 38.83561325 118.11918831 C38.85518572 114.85135564 38.84946927 111.58449841 38.83740234 108.31665039 C38.84864136 107.34973267 38.85988037 106.38281494 38.87145996 105.38659668 C38.83166244 101.15021546 38.75612387 98.74383582 36.50869751 95.06736755 C32.7424355 91.60105846 30.69513614 90.83865305 25.6640625 90.95703125 C24.17326172 90.98410156 24.17326172 90.98410156 22.65234375 91.01171875 C21.89308594 91.03492187 21.13382813 91.058125 20.3515625 91.08203125 C20.35679932 90.12538574 20.36203613 89.16874023 20.36743164 88.18310547 C20.38581427 84.56364921 20.39711334 80.94419687 20.40649414 77.32470703 C20.41145961 75.77131451 20.41823423 74.2179265 20.42700195 72.66455078 C20.55239885 49.84231523 19.28292528 29.70825213 2.9765625 12.14453125 C-9.09543782 1.07853096 -23.47508978 -4.29267393 -39.6484375 -4.23046875 C-40.48632812 -4.24658203 -41.32421875 -4.26269531 -42.1875 -4.27929688 C-48.20354404 -4.28395326 -53.07825455 -3.13958336 -58.6484375 -0.91796875 Z " fill="#F3F6F8" transform="translate(124.6484375,15.91796875)"/>
<path d="M0 0 C18.15 0 36.3 0 55 0 C55 6.93 55 13.86 55 21 C43.45 21 31.9 21 20 21 C20 26.28 20 31.56 20 37 C30.89 37 41.78 37 53 37 C53.020625 40.114375 53.04125 43.22875 53.0625 46.4375 C53.071604 47.42032959 53.08070801 48.40315918 53.09008789 49.41577148 C53.09258545 50.18477783 53.09508301 50.95378418 53.09765625 51.74609375 C53.10289307 52.53685303 53.10812988 53.3276123 53.11352539 54.14233398 C53 56 53 56 52 57 C49.62458949 57.08838648 47.2776642 57.11537523 44.90234375 57.09765625 C42.95702759 57.09390991 42.95702759 57.09390991 40.97241211 57.09008789 C39.31089111 57.08098389 37.64937012 57.07187988 35.9375 57.0625 C30.678125 57.041875 25.41875 57.02125 20 57 C20 67.89 20 78.78 20 90 C13.4 90 6.8 90 0 90 C0 60.3 0 30.6 0 0 Z " fill="#E3EBF3" transform="translate(26,122)"/>
<path d="M0 0 C19.47 0 38.94 0 59 0 C59 6.27 59 12.54 59 19 C45.8 19 32.6 19 19 19 C19 24.94 19 30.88 19 37 C29.56 37 40.12 37 51 37 C51 42.61 51 48.22 51 54 C40.44 54 29.88 54 19 54 C19 65.22 19 76.44 19 88 C12.73 88 6.46 88 0 88 C0 58.96 0 29.92 0 0 Z " fill="#EAF1F8" transform="translate(89,123)"/>
<path d="M0 0 C8.15173858 6.85619441 15.02195769 15.06395667 17.25 25.75 C17.33406811 27.30711074 17.36780938 28.8673852 17.36352539 30.42675781 C17.36340454 31.3602002 17.36328369 32.29364258 17.36315918 33.25537109 C17.35804321 34.22812988 17.35292725 35.20088867 17.34765625 36.203125 C17.34664917 37.10337402 17.34564209 38.00362305 17.34460449 38.93115234 C17.33938058 42.28744789 17.3254193 45.64372525 17.3125 49 C17.291875 56.5075 17.27125 64.015 17.25 71.75 C-10.47 71.75 -38.19 71.75 -66.75 71.75 C-66.8325 64.4075 -66.915 57.065 -67 49.5 C-67.03641602 47.20772461 -67.07283203 44.91544922 -67.11035156 42.55371094 C-67.25279805 27.25264601 -66.13613747 15.6911019 -55.23046875 4.140625 C-40.43854563 -9.82352627 -16.45074437 -12.06203908 0 0 Z M-49.75 10.75 C-50.61625 11.719375 -51.4825 12.68875 -52.375 13.6875 C-58.00072232 20.94172089 -58.90863031 27.15393536 -58.84765625 36.11328125 C-58.84664917 36.81594116 -58.84564209 37.51860107 -58.84460449 38.24255371 C-58.83940101 40.84921925 -58.82543987 43.45586139 -58.8125 46.0625 C-58.791875 51.899375 -58.77125 57.73625 -58.75 63.75 C-36.31 63.75 -13.87 63.75 9.25 63.75 C9.3325 57.85125 9.415 51.9525 9.5 45.875 C9.53641602 44.03437988 9.57283203 42.19375977 9.61035156 40.29736328 C9.74289766 28.83770584 8.45585571 19.81076832 1.0859375 10.5703125 C-7.11649173 2.43769118 -16.82666833 0.3151328 -27.9128418 0.31176758 C-37.12571416 0.52488508 -43.71469659 3.68007315 -49.75 10.75 Z " fill="#F3F5F7" transform="translate(110.75,35.25)"/>
<path d="M0 0 C1.31074099 3.93222296 0.30421778 5.15474403 -1.375 8.875 C-3.05182684 12.61273134 -4.36844738 15.95063321 -5 20 C-5.16669189 21.01312256 -5.33338379 22.02624512 -5.50512695 23.07006836 C-6.06823036 27.54183726 -6.22671573 31.93190816 -6.31640625 36.43359375 C-6.33718735 37.31153091 -6.35796844 38.18946808 -6.37937927 39.0940094 C-6.44431945 41.87509985 -6.50349927 44.65627785 -6.5625 47.4375 C-6.60573814 49.33269104 -6.64935405 51.2278735 -6.69335938 53.12304688 C-6.79994322 57.74861013 -6.90136408 62.37426071 -7 67 C-10.3 67 -13.6 67 -17 67 C-17 66.67 -17 66.34 -17 66 C-14.03 66 -11.06 66 -8 66 C-8.01047363 64.81559326 -8.02094727 63.63118652 -8.03173828 62.41088867 C-8.06824413 57.96967656 -8.09101058 53.52847741 -8.10986328 49.0871582 C-8.11985174 47.17372397 -8.13344716 45.26030473 -8.15087891 43.34692383 C-8.36975596 18.68463001 -8.36975596 18.68463001 -4 8.5625 C-3.67 7.78003906 -3.34 6.99757813 -3 6.19140625 C-2.04632948 4.10152671 -1.04400825 2.04606974 0 0 Z " fill="#B9C5D3" transform="translate(34,40)"/>
<path d="M0 0 C2.49067291 3.73600936 2.32324941 6.69797733 2.3359375 11.02734375 C2.3425943 11.81266983 2.3492511 12.59799591 2.35610962 13.40711975 C2.36622915 15.06720641 2.37092685 16.7273337 2.37060547 18.38745117 C2.37497846 20.92499904 2.41130172 23.4608068 2.44921875 25.99804688 C2.45508717 27.61197322 2.4590564 29.22590783 2.4609375 30.83984375 C2.47530853 31.5972435 2.48967957 32.35464325 2.50448608 33.13499451 C2.47367735 36.69370571 2.2761641 38.63590111 0.09619141 41.51000977 C-2 43 -2 43 -4 43 C-3 41 -2 39 -1 37 C-0.84308093 34.23068632 -0.74156866 31.48265893 -0.68359375 28.7109375 C-0.66281265 27.89251373 -0.64203156 27.07408997 -0.62062073 26.23086548 C-0.55515188 23.61233034 -0.49625274 20.99369361 -0.4375 18.375 C-0.39431224 16.60155193 -0.35069786 14.82811419 -0.30664062 13.0546875 C-0.19947324 8.70322954 -0.09819831 4.35166923 0 0 Z " fill="#2D3F60" transform="translate(160,183)"/>
<path d="M0 0 C-1.3881735 3.12857014 -3.01101878 5.28189174 -5.4375 7.6875 C-6.03433594 8.28949219 -6.63117187 8.89148438 -7.24609375 9.51171875 C-9 11 -9 11 -12 12 C-9.98697969 7.241952 -5.71890513 0 0 0 Z " fill="#D5DBE4" transform="translate(63,35)"/>
<path d="M0 0 C0.66 0.33 1.32 0.66 2 1 C-2.62 5.62 -7.24 10.24 -12 15 C-12 10.39852874 -9.10228152 8.19311408 -6 5 C-4.05341967 3.24193983 -2.06456557 1.62215867 0 0 Z " fill="#B1BFD2" transform="translate(51,21)"/>
</svg>
